<mxfile host="app.diagrams.net" agent="Mozilla/5.0 (Windows NT 10.0; Win64; x64) AppleWebKit/537.36 (KHTML, like Gecko) Chrome/134.0.0.0 Safari/537.36" version="28.2.1">
  <diagram name="Page-1" id="DIdx7nBtGvcNdAVX6ah9">
    <mxGraphModel dx="1426" dy="846" grid="1" gridSize="10" guides="1" tooltips="1" connect="1" arrows="1" fold="1" page="1" pageScale="1" pageWidth="850" pageHeight="1100" math="0" shadow="0">
      <root>
        <mxCell id="0" />
        <mxCell id="1" parent="0" />
        <mxCell id="0gsRjyHF3KItkGpKu2YP-3" value="" style="edgeStyle=orthogonalEdgeStyle;rounded=0;orthogonalLoop=1;jettySize=auto;html=1;" edge="1" parent="1" source="0gsRjyHF3KItkGpKu2YP-1" target="0gsRjyHF3KItkGpKu2YP-2">
          <mxGeometry relative="1" as="geometry" />
        </mxCell>
        <mxCell id="0gsRjyHF3KItkGpKu2YP-1" value="Website (customer)" style="rounded=0;whiteSpace=wrap;html=1;" vertex="1" parent="1">
          <mxGeometry x="70" y="100" width="120" height="60" as="geometry" />
        </mxCell>
        <mxCell id="0gsRjyHF3KItkGpKu2YP-5" value="" style="edgeStyle=orthogonalEdgeStyle;rounded=0;orthogonalLoop=1;jettySize=auto;html=1;" edge="1" parent="1" source="0gsRjyHF3KItkGpKu2YP-2" target="0gsRjyHF3KItkGpKu2YP-4">
          <mxGeometry relative="1" as="geometry" />
        </mxCell>
        <mxCell id="0gsRjyHF3KItkGpKu2YP-2" value="Embed Iframe (TCMA)" style="whiteSpace=wrap;html=1;rounded=0;" vertex="1" parent="1">
          <mxGeometry x="270" y="100" width="120" height="60" as="geometry" />
        </mxCell>
        <mxCell id="0gsRjyHF3KItkGpKu2YP-7" value="" style="edgeStyle=orthogonalEdgeStyle;rounded=0;orthogonalLoop=1;jettySize=auto;html=1;" edge="1" parent="1" source="0gsRjyHF3KItkGpKu2YP-4" target="0gsRjyHF3KItkGpKu2YP-6">
          <mxGeometry relative="1" as="geometry" />
        </mxCell>
        <mxCell id="0gsRjyHF3KItkGpKu2YP-4" value="Deeplink use website url of customer" style="whiteSpace=wrap;html=1;rounded=0;" vertex="1" parent="1">
          <mxGeometry x="470" y="100" width="120" height="60" as="geometry" />
        </mxCell>
        <mxCell id="0gsRjyHF3KItkGpKu2YP-6" value="Shorten URL social" style="whiteSpace=wrap;html=1;rounded=0;" vertex="1" parent="1">
          <mxGeometry x="670" y="100" width="120" height="60" as="geometry" />
        </mxCell>
      </root>
    </mxGraphModel>
  </diagram>
</mxfile>
